<?xml version="1.0" encoding="UTF-8" standalone="no"?>
<svg
   xmlns:dc="http://purl.org/dc/elements/1.1/"
   xmlns:cc="http://creativecommons.org/ns#"
   xmlns:rdf="http://www.w3.org/1999/02/22-rdf-syntax-ns#"
   xmlns:svg="http://www.w3.org/2000/svg"
   xmlns="http://www.w3.org/2000/svg"
   viewBox="0 0 43.088398 141.3838"
   height="141.3838"
   width="43.088398"
   xml:space="preserve"
   id="svg2021"
   version="1.1"><metadata
     id="metadata2027"><rdf:RDF><cc:Work
         rdf:about=""><dc:format>image/svg+xml</dc:format><dc:type
           rdf:resource="http://purl.org/dc/dcmitype/StillImage" /><dc:title></dc:title></cc:Work></rdf:RDF></metadata><defs
     id="defs2025" /><g
     transform="matrix(1.3333333,0,0,-1.3333333,-635.09986,188.70885)"
     id="g2029"><g
       id="text3780"
       style="font-style:normal;font-weight:normal;font-size:121.66136169px;line-height:125%;font-family:Sans;letter-spacing:0px;word-spacing:0px;fill:#000000;fill-opacity:1;stroke:none;stroke-width:9.12460232px;stroke-linecap:butt;stroke-linejoin:miter;stroke-opacity:1"
       transform="scale(1,-1)"
       aria-label="m"><path
         id="path3804"
         style="font-style:normal;font-variant:normal;font-weight:normal;font-stretch:normal;font-family:Webdings;-inkscape-font-specification:Webdings;stroke-width:9.12460232px"
         d="m 498.54236,-135.53174 h -12.89087 v -1.36632 q 1.12869,-0.11881 2.61381,-1.48512 0.35643,-1.42572 0.11881,-3.14846 h 7.42562 q 0.23762,0.83167 0,2.31679 -0.23762,1.48512 2.73263,2.4356 z m -1.36631,1.90096 q -0.29703,2.37619 -1.90096,2.37619 -1.00989,0 -1.90096,-0.83166 -0.83167,-0.89108 -1.1881,-0.89108 -0.41583,0 -1.12869,0.89108 -0.65346,0.89107 -1.42572,0.83166 -1.42572,-0.11881 -2.49501,-2.37619 1.84155,-1.1287 5.34645,-1.1287 3.74251,0 4.69299,1.1287 z m 11.46516,10.63348 -3.68311,27.623312 -2.91085,-0.95048 -3.86132,29.821291 h -11.58397 l -4.69299,-29.821291 -3.02965,0.95048 -2.55441,-27.623312 12.17801,-3.44548 -1.72274,2.61381 3.80192,10.6929 1.36631,-11.58397 -1.12869,-1.72274 h 3.56429 l -1.12869,1.72274 0.95048,11.58397 4.15835,-10.6929 -1.78215,-2.79203 z m -10.51468,59.286156 q 0.77226,9.267174 -2.85144,9.267174 -2.25739,0 -2.61382,-4.990017 -0.41583,4.990017 -2.97025,4.990017 -3.26727,0 -2.49501,-9.326579 l 0.83167,0.05941 q -0.47524,2.613819 1.66334,2.732628 1.60394,0.0594 1.96037,-1.366314 0.11881,-0.594049 -0.0594,-1.425719 l 0.95048,0.05941 q 0.0594,0.178215 0.11881,0.83167 0,-0.534645 0.0594,-0.891075 l 0.77226,0.05941 q -0.35643,2.613819 1.78215,2.732628 1.60393,0.0594 1.90096,-1.366314 0.17821,-0.594049 0,-1.425719 z m 9.08896,23.9402 q 0,1.960364 -4.27716,3.089058 -4.21775,1.188099 -10.51468,1.188099 -6.29692,0 -10.45527,-1.128694 -4.33656,-1.188099 -4.33656,-3.148463 0,-1.960364 4.33656,-3.386083 4.33656,-1.425719 10.45527,-1.425719 6.11871,0 10.45527,1.425719 4.33657,1.425719 4.33657,3.386083 z" /></g></g></svg>