<?xml version="1.0" encoding="UTF-8" standalone="no"?>
<svg
   xmlns:dc="http://purl.org/dc/elements/1.1/"
   xmlns:cc="http://creativecommons.org/ns#"
   xmlns:rdf="http://www.w3.org/1999/02/22-rdf-syntax-ns#"
   xmlns:svg="http://www.w3.org/2000/svg"
   xmlns="http://www.w3.org/2000/svg"
   xmlns:xlink="http://www.w3.org/1999/xlink"
   xmlns:sodipodi="http://sodipodi.sourceforge.net/DTD/sodipodi-0.dtd"
   xmlns:inkscape="http://www.inkscape.org/namespaces/inkscape"
   sodipodi:docname="event.svg"
   inkscape:version="1.0 (4035a4f, 2020-05-01)"
   id="svg8"
   version="1.1"
   viewBox="0 0 211.66666 119.23888"
   height="119.23888mm"
   width="211.66666mm">
  <defs
     id="defs2">
    <linearGradient
       id="linearGradient1111"
       inkscape:collect="always">
      <stop
         id="stop1107"
         offset="0"
         style="stop-color:#9edbdb;stop-opacity:1" />
      <stop
         id="stop1109"
         offset="1"
         style="stop-color:#d23055;stop-opacity:1" />
    </linearGradient>
    <style
       id="style957">
      .cls-1 {
        fill: #fff;
      }

      .cls-1, .cls-2 {
        fill-rule: evenodd;
      }

      .cls-2 {
        fill: #d33232;
        filter: url(#filter);
      }
    </style>
    <filter
       id="filter"
       x="17.031"
       y="26.906"
       width="439.65701"
       height="174.532"
       filterUnits="userSpaceOnUse">
      <feFlood
         result="flood"
         flood-color="#d33232"
         id="feFlood959" />
      <feComposite
         result="composite"
         operator="in"
         in2="SourceGraphic"
         id="feComposite961" />
      <feBlend
         result="blend"
         in2="SourceGraphic"
         id="feBlend963"
         mode="normal" />
    </filter>
    <linearGradient
       gradientTransform="translate(0,-9.5250003)"
       gradientUnits="userSpaceOnUse"
       y2="-20.633993"
       x2="191.8589"
       y1="-20.633993"
       x1="-0.87585354"
       id="linearGradient1113"
       xlink:href="#linearGradient1111"
       inkscape:collect="always" />
  </defs>
  <sodipodi:namedview
     inkscape:window-maximized="0"
     inkscape:window-y="93"
     inkscape:window-x="567"
     inkscape:window-height="1192"
     inkscape:window-width="1311"
     showgrid="false"
     inkscape:document-rotation="0"
     inkscape:current-layer="text1097"
     inkscape:document-units="mm"
     inkscape:cy="429.37665"
     inkscape:cx="400.51257"
     inkscape:zoom="0.77486988"
     inkscape:pageshadow="2"
     inkscape:pageopacity="0.0"
     borderopacity="1.0"
     bordercolor="#666666"
     pagecolor="#ffffff"
     id="base"
     fit-margin-top="0"
     fit-margin-left="0"
     fit-margin-right="0"
     fit-margin-bottom="0" />
  <metadata
     id="metadata5">
    <rdf:RDF>
      <cc:Work
         rdf:about="">
        <dc:format>image/svg+xml</dc:format>
        <dc:type
           rdf:resource="http://purl.org/dc/dcmitype/StillImage" />
        <dc:title />
      </cc:Work>
    </rdf:RDF>
  </metadata>
  <g
     id="layer1"
     inkscape:groupmode="layer"
     inkscape:label="Layer 1"
     transform="translate(10.341805,79.4776)">
    <rect
       y="-79.4776"
       x="-10.341805"
       height="119.23888"
       width="211.66666"
       id="rect1007"
       style="fill:#363636;fill-opacity:1;stroke-width:0.185208;stroke-linecap:round;stroke-linejoin:round;paint-order:markers fill stroke" />
    <g
       style="font-style:normal;font-weight:normal;font-size:6.89745px;line-height:1.25;font-family:sans-serif;letter-spacing:0.79375px;fill:#ffffff;fill-opacity:1;stroke:none;stroke-width:0.172436"
       id="text1001"
       aria-label="1 OCTOBER 2020">
      <path
         id="path927"
         style="font-style:normal;font-variant:normal;font-weight:normal;font-stretch:normal;font-family:Monaco;-inkscape-font-specification:Monaco;text-align:center;text-anchor:middle;fill:#ffffff;stroke-width:0.172436"
         d="m 0.3123344,26.334471 v -4.034739 q -0.28290322,0.225649 -0.54896696,0.38394 -0.26606375,0.158291 -0.73083332,0.323318 V 22.441184 Q -0.22989677,22.12797 0.3123344,21.629521 h 0.62642857 v 4.70495 H 2.194988 v 0.522024 h -3.16245388 v -0.522024 z" />
      <path
         id="path929"
         style="font-style:normal;font-variant:normal;font-weight:normal;font-stretch:normal;font-family:Monaco;-inkscape-font-specification:Monaco;text-align:center;text-anchor:middle;fill:#ffffff;stroke-width:0.172436"
         d="m 10.326308,27.014786 q -0.8891241,0 -1.3606294,-0.747673 -0.4681375,-0.751041 -0.4681375,-2.024105 0,-1.269697 0.4681375,-2.017369 0.4715053,-0.751041 1.3606294,-0.751041 0.892493,0 1.36063,0.751041 0.468138,0.747672 0.468138,2.017369 0,1.273064 -0.468138,2.024105 -0.468137,0.747673 -1.36063,0.747673 z m 0,-0.525392 q 0.491713,0 0.818399,-0.555702 0.330054,-0.559071 0.330054,-1.690684 0,-1.131613 -0.330054,-1.687316 -0.326686,-0.55907 -0.818399,-0.55907 -0.4917124,0 -0.8217662,0.55907 -0.3266858,0.555703 -0.3266858,1.687316 0,1.131613 0.3266858,1.690684 0.3300538,0.555702 0.8217662,0.555702 z" />
      <path
         id="path931"
         style="font-style:normal;font-variant:normal;font-weight:normal;font-stretch:normal;font-family:Monaco;-inkscape-font-specification:Monaco;text-align:center;text-anchor:middle;fill:#ffffff;stroke-width:0.172436"
         d="m 16.852217,26.795873 q -0.586014,0.218913 -1.050783,0.218913 -0.612957,0 -1.128245,-0.326686 -0.515288,-0.330054 -0.801559,-0.97669 -0.286271,-0.650003 -0.286271,-1.468402 0,-0.811663 0.282903,-1.458299 0.282903,-0.646636 0.798191,-0.980057 0.515288,-0.333422 1.134981,-0.333422 0.464769,0 1.050783,0.218913 v 0.619693 q -0.542231,-0.313214 -1.077726,-0.313214 -0.404148,0 -0.740937,0.276167 -0.333422,0.276168 -0.538864,0.811663 -0.205441,0.532127 -0.205441,1.158556 0,0.636532 0.212177,1.175396 0.212178,0.538863 0.542231,0.808294 0.330054,0.266064 0.730834,0.266064 0.532127,0 1.077726,-0.313214 z" />
      <path
         id="path933"
         style="font-style:normal;font-variant:normal;font-weight:normal;font-stretch:normal;font-family:Monaco;-inkscape-font-specification:Monaco;text-align:center;text-anchor:middle;fill:#ffffff;stroke-width:0.172436"
         d="M 19.845202,26.856495 V 22.205431 H 18.27913 v -0.57591 h 3.815826 v 0.57591 h -1.569439 v 4.651064 z" />
      <path
         id="path935"
         style="font-style:normal;font-variant:normal;font-weight:normal;font-stretch:normal;font-family:Monaco;-inkscape-font-specification:Monaco;text-align:center;text-anchor:middle;fill:#ffffff;stroke-width:0.172436"
         d="m 25.114884,27.014786 q -0.889124,0 -1.360629,-0.747673 -0.468138,-0.751041 -0.468138,-2.024105 0,-1.269697 0.468138,-2.017369 0.471505,-0.751041 1.360629,-0.751041 0.892493,0 1.36063,0.751041 0.468138,0.747672 0.468138,2.017369 0,1.273064 -0.468138,2.024105 -0.468137,0.747673 -1.36063,0.747673 z m 0,-0.525392 q 0.491713,0 0.818399,-0.555702 0.330054,-0.559071 0.330054,-1.690684 0,-1.131613 -0.330054,-1.687316 -0.326686,-0.55907 -0.818399,-0.55907 -0.491712,0 -0.821766,0.55907 -0.326686,0.555703 -0.326686,1.687316 0,1.131613 0.326686,1.690684 0.330054,0.555702 0.821766,0.555702 z" />
      <path
         id="path937"
         style="font-style:normal;font-variant:normal;font-weight:normal;font-stretch:normal;font-family:Monaco;-inkscape-font-specification:Monaco;text-align:center;text-anchor:middle;fill:#ffffff;stroke-width:0.172436"
         d="m 28.555802,26.856495 v -5.226974 h 1.020472 q 0.919436,0 1.229282,0.141452 0.313214,0.138083 0.468138,0.410883 0.154923,0.272799 0.154923,0.623061 0,0.276167 -0.09093,0.525391 -0.09093,0.245857 -0.269432,0.451298 -0.178498,0.202074 -0.518656,0.38394 0.623061,0.249225 0.841974,0.612957 0.222281,0.363733 0.222281,0.727466 0,0.346893 -0.188602,0.673579 -0.185234,0.326686 -0.522024,0.501816 -0.336789,0.175131 -1.077726,0.175131 z m 0.680315,-2.872815 h 0.713994 q 0.346893,-0.144819 0.505184,-0.303111 0.161659,-0.161659 0.239121,-0.356996 0.08083,-0.198706 0.08083,-0.434459 0,-0.370468 -0.218913,-0.552335 -0.215545,-0.181866 -0.845342,-0.181866 h -0.474873 z m 0,2.350791 h 0.643268 q 0.538863,0 0.794823,-0.252592 0.259328,-0.25596 0.259328,-0.612957 0,-0.262696 -0.141451,-0.481609 -0.141452,-0.222281 -0.437827,-0.350261 -0.296375,-0.131348 -0.929539,-0.131348 h -0.188602 z" />
      <path
         id="path939"
         style="font-style:normal;font-variant:normal;font-weight:normal;font-stretch:normal;font-family:Monaco;-inkscape-font-specification:Monaco;text-align:center;text-anchor:middle;fill:#ffffff;stroke-width:0.172436"
         d="m 36.412029,26.280585 v 0.57591 h -2.822297 v -5.226974 h 2.76841 v 0.525392 h -2.088095 v 1.774881 h 1.879286 v 0.522024 h -1.879286 v 1.828767 z" />
      <path
         id="path941"
         style="font-style:normal;font-variant:normal;font-weight:normal;font-stretch:normal;font-family:Monaco;-inkscape-font-specification:Monaco;text-align:center;text-anchor:middle;fill:#ffffff;stroke-width:0.172436"
         d="m 39.017704,24.637052 v 2.219443 h -0.680315 v -5.226974 h 1.397677 q 0.683683,0 1.007001,0.141452 0.323318,0.138083 0.498448,0.420987 0.178499,0.282903 0.178499,0.609589 0,0.30311 -0.117877,0.609589 -0.117876,0.306478 -0.326686,0.548967 -0.205441,0.23912 -0.596117,0.454666 l 1.512185,2.441724 h -0.808295 l -1.384205,-2.219443 z m 0,-0.525392 h 0.953115 q 0.31995,-0.17513 0.474873,-0.356997 0.158291,-0.181866 0.23912,-0.387308 0.08083,-0.205441 0.08083,-0.410883 0,-0.367101 -0.269432,-0.582646 -0.266064,-0.218913 -0.969954,-0.218913 h -0.508552 z" />
      <path
         id="path943"
         style="font-style:normal;font-variant:normal;font-weight:normal;font-stretch:normal;font-family:Monaco;-inkscape-font-specification:Monaco;text-align:center;text-anchor:middle;fill:#ffffff;stroke-width:0.172436"
         d="M 51.358894,26.856495 H 48.19644 v -0.57591 q 0,-0.222281 0.09093,-0.474873 0.09093,-0.255961 0.346893,-0.572543 0.25596,-0.316582 0.542232,-0.609589 l 0.356996,-0.363733 q 0.107773,-0.11114 0.471506,-0.515288 0.363733,-0.404147 0.478241,-0.619692 0.117876,-0.215546 0.117876,-0.424355 0,-0.33679 -0.269431,-0.518656 -0.269432,-0.185234 -0.606221,-0.185234 -0.191971,0 -0.431091,0.04378 -0.235753,0.04378 -0.414251,0.104405 -0.178499,0.05725 -0.579278,0.239121 v -0.555703 q 0.424355,-0.202074 0.848709,-0.276167 0.427723,-0.07746 0.703891,-0.07746 0.407515,0 0.747672,0.134716 0.343526,0.131348 0.508553,0.410883 0.168394,0.279535 0.168394,0.596117 0,0.35363 -0.215545,0.724098 -0.212177,0.370469 -0.804927,0.953114 l -0.38394,0.380573 -0.323318,0.316582 q -0.306479,0.309846 -0.495081,0.599485 -0.188602,0.289639 -0.208809,0.690419 h 2.51245 z" />
      <path
         id="path945"
         style="font-style:normal;font-variant:normal;font-weight:normal;font-stretch:normal;font-family:Monaco;-inkscape-font-specification:Monaco;text-align:center;text-anchor:middle;fill:#ffffff;stroke-width:0.172436"
         d="m 54.692039,21.474598 q 0.892492,0 1.360629,0.751041 0.468138,0.747672 0.468138,2.017369 0,1.273064 -0.468138,2.024105 -0.468137,0.747673 -1.360629,0.747673 -0.889125,0 -1.36063,-0.747673 -0.468138,-0.751041 -0.468138,-2.024105 0,-1.269697 0.468138,-2.017369 0.471505,-0.751041 1.36063,-0.751041 z m -1.020473,3.886551 1.80856,-2.8324 q -0.171762,-0.313214 -0.373836,-0.420987 -0.198706,-0.11114 -0.414251,-0.11114 -0.562439,0 -0.855446,0.626428 -0.293007,0.623061 -0.293007,1.582911 0,0.218913 0.01347,0.471506 0.01347,0.252592 0.114508,0.683682 z m 2.034209,-2.209339 -1.795088,2.849239 q 0.144819,0.245857 0.333422,0.370469 0.188602,0.121244 0.420986,0.121244 0.639901,0 0.909332,-0.713994 0.269432,-0.717361 0.269432,-1.589646 0,-0.538864 -0.138084,-1.037312 z" />
      <path
         id="path947"
         style="font-style:normal;font-variant:normal;font-weight:normal;font-stretch:normal;font-family:Monaco;-inkscape-font-specification:Monaco;text-align:center;text-anchor:middle;fill:#ffffff;stroke-width:0.172436"
         d="m 61.217948,26.856495 h -3.162453 v -0.57591 q 0,-0.222281 0.09093,-0.474873 0.09093,-0.255961 0.346893,-0.572543 0.25596,-0.316582 0.542231,-0.609589 l 0.356997,-0.363733 q 0.107773,-0.11114 0.471505,-0.515288 0.363733,-0.404147 0.478242,-0.619692 0.117876,-0.215546 0.117876,-0.424355 0,-0.33679 -0.269432,-0.518656 -0.269431,-0.185234 -0.606221,-0.185234 -0.19197,0 -0.431091,0.04378 -0.235752,0.04378 -0.414251,0.104405 -0.178498,0.05725 -0.579278,0.239121 v -0.555703 q 0.424355,-0.202074 0.84871,-0.276167 0.427723,-0.07746 0.70389,-0.07746 0.407515,0 0.747673,0.134716 0.343525,0.131348 0.508552,0.410883 0.168395,0.279535 0.168395,0.596117 0,0.35363 -0.215545,0.724098 -0.212178,0.370469 -0.804927,0.953114 l -0.383941,0.380573 -0.323317,0.316582 q -0.306479,0.309846 -0.495081,0.599485 -0.188602,0.289639 -0.20881,0.690419 h 2.51245 z" />
      <path
         id="path949"
         style="font-style:normal;font-variant:normal;font-weight:normal;font-stretch:normal;font-family:Monaco;-inkscape-font-specification:Monaco;text-align:center;text-anchor:middle;fill:#ffffff;stroke-width:0.172436"
         d="m 64.551089,21.474598 q 0.892493,0 1.36063,0.751041 0.468138,0.747672 0.468138,2.017369 0,1.273064 -0.468138,2.024105 -0.468137,0.747673 -1.36063,0.747673 -0.889124,0 -1.360629,-0.747673 -0.468138,-0.751041 -0.468138,-2.024105 0,-1.269697 0.468138,-2.017369 0.471505,-0.751041 1.360629,-0.751041 z m -1.020472,3.886551 1.80856,-2.8324 q -0.171763,-0.313214 -0.373836,-0.420987 -0.198706,-0.11114 -0.414252,-0.11114 -0.562438,0 -0.855445,0.626428 -0.293007,0.623061 -0.293007,1.582911 0,0.218913 0.01347,0.471506 0.01347,0.252592 0.114508,0.683682 z m 2.034209,-2.209339 -1.795088,2.849239 q 0.144819,0.245857 0.333421,0.370469 0.188602,0.121244 0.420987,0.121244 0.6399,0 0.909332,-0.713994 0.269432,-0.717361 0.269432,-1.589646 0,-0.538864 -0.138084,-1.037312 z" />
    </g>
    <g
       transform="matrix(0.0599214,0,0,0.0599214,142.42307,16.186758)"
       id="g983">
      <path
         style="fill:#ffffff;fill-opacity:1"
         id="DevNQ_copy_2"
         data-name="DevNQ copy 2"
         class="cls-1"
         d="M 602.1,155.78 501.867,26.92 h -29.13 v 172.553 h 29.13 V 73.576 l 97.761,125.9 h 31.6 V 26.92 H 602.1 Z m 166.143,69.613 a 57.467,57.467 0 0 0 30.357,8.887 q 27.646,0 49.127,-22.711 l -16.54,-22.957 a 35.054,35.054 0 0 1 -13.7,12.836 37.889,37.889 0 0 1 -18.392,4.937 q -12.838,0 -21.231,-11.108 a 87.086,87.086 0 0 0 41.474,-32.215 q 15.554,-22.339 15.553,-51.223 0,-38.012 -26.168,-63.566 -26.168,-25.554 -64.68,-25.55 -38.511,0 -64.68,25.55 -26.169,25.55 -26.163,63.689 0,38.141 26.168,63.69 26.168,25.549 64.68,25.549 l 3.7,-0.247 a 47.987,47.987 0 0 0 20.491,24.439 z m 36.784,-113.431 q 0,26.048 -17.651,44.311 -17.651,18.263 -43.326,18.268 -25.678,0 -43.326,-18.268 -17.648,-18.268 -17.651,-44.311 0,-26.041 17.651,-44.311 17.651,-18.27 43.326,-18.267 25.672,0 43.326,18.267 17.654,18.267 17.647,44.311 z" />
      <path
         id="DevNQ_copy"
         data-name="DevNQ copy"
         class="cls-2"
         d="M 76.267,26.92 H 17.019 v 172.553 h 57.273 q 49.864,0 74.061,-23.451 24.197,-23.451 24.193,-63.689 0,-40.234 -24.934,-62.825 Q 122.678,26.917 76.267,26.92 Z m 50.238,130.217 q -16.663,14.939 -48.016,14.935 H 46.149 V 53.828 H 75.28 q 67.887,0 67.889,59.245 0,29.127 -16.664,44.064 z M 318.446,126.9 q 0,-28.385 -18.762,-44.558 Q 280.922,66.169 254.136,66.17 A 66.283,66.283 0 0 0 207.6,84.438 q -19.754,18.271 -19.749,49.248 0.005,30.977 19.379,49.371 19.377,18.393 47.029,18.391 34.068,0 55.3,-21.97 l -15.8,-17.28 q -12.84,15.552 -37.524,15.552 a 45.913,45.913 0 0 1 -27.65,-8.764 q -12.1,-8.758 -13.084,-23.081 H 318.446 Z M 227.6,99.126 a 43.734,43.734 0 0 1 27.279,-9.257 q 15.181,0 25.551,8.887 10.37,8.887 10.37,25.426 h -75.3 q 0,-15.795 12.1,-25.056 z M 403.862,199.473 456.693,68.145 H 428.056 L 388.063,167.382 348.07,68.145 h -28.637 l 52.83,131.328 h 31.6 z" />
    </g>
    <g
       style="font-style:normal;font-weight:normal;font-size:20.3583px;line-height:0.95;font-family:sans-serif;letter-spacing:2.11667px;fill:url(#linearGradient1113);fill-opacity:1;stroke:none;stroke-width:0.508956"
       id="text1087"
       aria-label="HANDS-ON +
HACKTOBERFEST">
      <path
         id="path882"
         style="font-style:normal;font-variant:normal;font-weight:800;font-stretch:normal;font-family:Lato;-inkscape-font-specification:'Lato Ultra-Bold';fill:url(#linearGradient1113);fill-opacity:1;stroke-width:0.508956"
         d="M 11.65468,-22.799473 H 8.1937688 v -6.270356 H 2.1677122 v 6.270356 h -3.4609108 v -14.831021 h 3.4609108 v 6.199102 h 6.0260566 v -6.199102 H 11.65468 Z" />
      <path
         id="path884"
         style="font-style:normal;font-variant:normal;font-weight:800;font-stretch:normal;font-family:Lato;-inkscape-font-specification:'Lato Ultra-Bold';fill:url(#linearGradient1113);fill-opacity:1;stroke-width:0.508956"
         d="m 30.014409,-22.799473 h -2.666937 q -0.447883,0 -0.743078,-0.203583 -0.285016,-0.213762 -0.396987,-0.539495 L 25.332,-26.128055 h -5.639249 l -0.875407,2.585504 q -0.101791,0.285016 -0.396987,0.519137 -0.295195,0.223941 -0.722719,0.223941 h -2.687296 l 5.741041,-14.831021 h 3.521985 z m -9.527684,-5.669786 h 4.051301 L 23.17402,-32.53074 q -0.132329,-0.386808 -0.315553,-0.905944 -0.173046,-0.529316 -0.346091,-1.140065 -0.162867,0.620928 -0.335912,1.150244 -0.173046,0.529316 -0.325733,0.916123 z" />
      <path
         id="path886"
         style="font-style:normal;font-variant:normal;font-weight:800;font-stretch:normal;font-family:Lato;-inkscape-font-specification:'Lato Ultra-Bold';fill:url(#linearGradient1113);fill-opacity:1;stroke-width:0.508956"
         d="m 35.13043,-37.630494 q 0.223941,0 0.376629,0.02036 0.152687,0.02036 0.274837,0.08143 0.122149,0.0509 0.23412,0.152687 0.111971,0.101791 0.254479,0.274837 l 7.043971,8.906756 q -0.04072,-0.427524 -0.06107,-0.824511 -0.02036,-0.407166 -0.02036,-0.763436 v -7.848125 h 3.033387 v 14.831021 h -1.791531 q -0.396986,0 -0.671823,-0.12215 -0.274837,-0.122149 -0.529316,-0.447882 l -6.993076,-8.835502 q 0.03054,0.386808 0.0509,0.763436 0.02036,0.36645 0.02036,0.692182 v 7.949916 h -3.033387 v -14.831021 h 1.811889 z" />
      <path
         id="path888"
         style="font-style:normal;font-variant:normal;font-weight:800;font-stretch:normal;font-family:Lato;-inkscape-font-specification:'Lato Ultra-Bold';fill:url(#linearGradient1113);fill-opacity:1;stroke-width:0.508956"
         d="m 64.280058,-30.220073 q 0,1.608306 -0.559853,2.972312 -0.549674,1.353827 -1.55741,2.351383 -1.007736,0.987378 -2.432817,1.547231 -1.414902,0.549674 -3.145357,0.549674 h -5.761399 v -14.831021 h 5.761399 q 1.730455,0 3.145357,0.559853 1.425081,0.559854 2.432817,1.547231 1.007736,0.987378 1.55741,2.351384 0.559853,1.353827 0.559853,2.951953 z m -3.521986,0 q 0,-1.099348 -0.285016,-1.984934 -0.285016,-0.885586 -0.824511,-1.496335 -0.529316,-0.620928 -1.302931,-0.946661 -0.773616,-0.335912 -1.760993,-0.335912 h -2.300488 v 9.537863 h 2.300488 q 0.987377,0 1.760993,-0.325733 0.773615,-0.335911 1.302931,-0.94666 0.539495,-0.620929 0.824511,-1.506515 0.285016,-0.885586 0.285016,-1.995113 z" />
      <path
         id="path890"
         style="font-style:normal;font-variant:normal;font-weight:800;font-stretch:normal;font-family:Lato;-inkscape-font-specification:'Lato Ultra-Bold';fill:url(#linearGradient1113);fill-opacity:1;stroke-width:0.508956"
         d="m 76.315037,-34.617466 q -0.152688,0.2443 -0.325733,0.36645 -0.162867,0.12215 -0.427524,0.12215 -0.234121,0 -0.508958,-0.142508 -0.264658,-0.152688 -0.610749,-0.335912 -0.335912,-0.183225 -0.773615,-0.325733 -0.437704,-0.152687 -0.997557,-0.152687 -0.967019,0 -1.445439,0.417345 -0.468241,0.407166 -0.468241,1.109527 0,0.447883 0.285016,0.743078 0.285016,0.295195 0.743078,0.508957 0.468241,0.213763 1.058632,0.396987 0.600569,0.173046 1.221498,0.396987 0.620928,0.213762 1.211318,0.508958 0.60057,0.295195 1.058632,0.753257 0.468241,0.458061 0.753257,1.119706 0.285016,0.651466 0.285016,1.577768 0,1.028094 -0.35627,1.92386 -0.35627,0.895765 -1.038273,1.567589 -0.671824,0.661644 -1.669381,1.048452 -0.987377,0.376629 -2.249592,0.376629 -0.692182,0 -1.414902,-0.142509 -0.71254,-0.142508 -1.384364,-0.396986 -0.671824,-0.264658 -1.262215,-0.620928 -0.59039,-0.356271 -1.028094,-0.793974 l 1.017915,-1.608306 q 0.111971,-0.183224 0.315554,-0.295195 0.203583,-0.111971 0.437703,-0.111971 0.305375,0 0.610749,0.193404 0.315554,0.193404 0.702362,0.427524 0.396986,0.234121 0.905944,0.427525 0.508957,0.193403 1.20114,0.193403 0.936481,0 1.455618,-0.407166 0.519137,-0.417345 0.519137,-1.31311 0,-0.519136 -0.285017,-0.844869 -0.285016,-0.325733 -0.753257,-0.539495 -0.458061,-0.213762 -1.048452,-0.376629 -0.590391,-0.162866 -1.211319,-0.35627 -0.620928,-0.203583 -1.211319,-0.488599 -0.59039,-0.295195 -1.058631,-0.763436 -0.458062,-0.47842 -0.743078,-1.180782 -0.285016,-0.71254 -0.285016,-1.750813 0,-0.834691 0.335912,-1.628664 0.335912,-0.793974 0.987377,-1.414902 0.651466,-0.620928 1.598127,-0.987378 0.946661,-0.376628 2.168158,-0.376628 0.682004,0 1.32329,0.11197 0.651466,0.101792 1.231677,0.315554 0.580212,0.203583 1.07899,0.498778 0.508957,0.285017 0.905944,0.651466 z" />
      <path
         id="path892"
         style="font-style:normal;font-variant:normal;font-weight:800;font-stretch:normal;font-family:Lato;-inkscape-font-specification:'Lato Ultra-Bold';fill:url(#linearGradient1113);fill-opacity:1;stroke-width:0.508956"
         d="m 81.016577,-30.260789 h 5.496741 v 2.544787 h -5.496741 z" />
      <path
         id="path894"
         style="font-style:normal;font-variant:normal;font-weight:800;font-stretch:normal;font-family:Lato;-inkscape-font-specification:'Lato Ultra-Bold';fill:url(#linearGradient1113);fill-opacity:1;stroke-width:0.508956"
         d="m 105.48952,-30.220073 q 0,1.608306 -0.55985,2.99267 -0.54968,1.384364 -1.55741,2.412459 -1.00774,1.017915 -2.43282,1.598126 -1.4149,0.580212 -3.145355,0.580212 -1.730456,0 -3.155537,-0.580212 -1.42508,-0.580211 -2.442995,-1.598126 -1.007736,-1.028095 -1.567589,-2.412459 -0.549675,-1.384364 -0.549675,-2.99267 0,-1.608306 0.549675,-2.99267 0.559853,-1.384364 1.567589,-2.402279 1.017915,-1.017915 2.442995,-1.598127 1.425081,-0.580211 3.155537,-0.580211 1.730455,0 3.145355,0.59039 1.42508,0.580212 2.43282,1.598127 1.00773,1.017915 1.55741,2.402279 0.55985,1.384365 0.55985,2.982491 z m -3.52198,0 q 0,-1.099348 -0.28502,-1.974755 -0.28502,-0.885586 -0.82451,-1.496335 -0.52932,-0.610749 -1.302932,-0.936482 -0.773616,-0.325732 -1.760993,-0.325732 -0.997557,0 -1.781351,0.325732 -0.773616,0.325733 -1.313111,0.936482 -0.529315,0.610749 -0.814332,1.496335 -0.285016,0.875407 -0.285016,1.974755 0,1.109527 0.285016,1.995113 0.285017,0.875407 0.814332,1.486156 0.539495,0.610749 1.313111,0.936482 0.783794,0.315554 1.781351,0.315554 0.987377,0 1.760993,-0.315554 0.773612,-0.325733 1.302932,-0.936482 0.53949,-0.610749 0.82451,-1.486156 0.28502,-0.885586 0.28502,-1.995113 z" />
      <path
         id="path896"
         style="font-style:normal;font-variant:normal;font-weight:800;font-stretch:normal;font-family:Lato;-inkscape-font-specification:'Lato Ultra-Bold';fill:url(#linearGradient1113);fill-opacity:1;stroke-width:0.508956"
         d="m 111.08301,-37.630494 q 0.22394,0 0.37662,0.02036 0.15269,0.02036 0.27484,0.08143 0.12215,0.0509 0.23412,0.152687 0.11197,0.101791 0.25448,0.274837 l 7.04397,8.906756 q -0.0407,-0.427524 -0.0611,-0.824511 -0.0204,-0.407166 -0.0204,-0.763436 v -7.848125 h 3.03339 v 14.831021 h -1.79153 q -0.39699,0 -0.67183,-0.12215 -0.27484,-0.122149 -0.52931,-0.447882 l -6.99308,-8.835502 q 0.0305,0.386808 0.0509,0.763436 0.0204,0.36645 0.0204,0.692182 v 7.949916 h -3.03338 v -14.831021 h 1.81189 z" />
      <path
         id="path898"
         style="font-style:normal;font-variant:normal;font-weight:800;font-stretch:normal;font-family:Lato;-inkscape-font-specification:'Lato Ultra-Bold';fill:url(#linearGradient1113);fill-opacity:1;stroke-width:0.508956"
         d="m 138.77356,-34.80069 v 4.030943 h 3.76628 v 2.259771 h -3.76628 v 4.051302 h -2.56515 v -4.051302 h -3.74593 v -2.259771 h 3.74593 v -4.030943 z" />
      <path
         id="path900"
         style="font-style:normal;font-variant:normal;font-weight:800;font-stretch:normal;font-family:Lato;-inkscape-font-specification:'Lato Ultra-Bold';fill:url(#linearGradient1113);fill-opacity:1;stroke-width:0.508956"
         d="M 11.65468,-3.0993641 H 8.1937688 V -9.3697202 H 2.1677122 v 6.2703561 H -1.2931986 V -17.930385 h 3.4609108 v 6.199102 h 6.0260566 v -6.199102 H 11.65468 Z" />
      <path
         id="path902"
         style="font-style:normal;font-variant:normal;font-weight:800;font-stretch:normal;font-family:Lato;-inkscape-font-specification:'Lato Ultra-Bold';fill:url(#linearGradient1113);fill-opacity:1;stroke-width:0.508956"
         d="m 30.014409,-3.0993641 h -2.666937 q -0.447883,0 -0.743078,-0.203583 -0.285016,-0.2137621 -0.396987,-0.5394949 L 25.332,-6.427946 h -5.639249 l -0.875407,2.585504 q -0.101791,0.2850162 -0.396987,0.5191366 -0.295195,0.2239413 -0.722719,0.2239413 h -2.687296 l 5.741041,-14.8310209 h 3.521985 z m -9.527684,-5.6697863 h 4.051301 L 23.17402,-12.830631 q -0.132329,-0.386808 -0.315553,-0.905944 -0.173046,-0.529316 -0.346091,-1.140065 -0.162867,0.620928 -0.335912,1.150244 -0.173046,0.529316 -0.325733,0.916123 z" />
      <path
         id="path904"
         style="font-style:normal;font-variant:normal;font-weight:800;font-stretch:normal;font-family:Lato;-inkscape-font-specification:'Lato Ultra-Bold';fill:url(#linearGradient1113);fill-opacity:1;stroke-width:0.508956"
         d="m 42.687493,-6.9369035 q 0.12215,0 0.2443,0.050896 0.12215,0.040717 0.23412,0.1526872 l 1.364006,1.4352601 q -0.895765,1.1706022 -2.249592,1.7711721 -1.343647,0.5903906 -3.186073,0.5903906 -1.689739,0 -3.033387,-0.5700323 -1.333469,-0.5802116 -2.26995,-1.5879474 -0.926303,-1.0179149 -1.425081,-2.4022793 -0.498779,-1.3945435 -0.498779,-3.0232073 0,-1.659202 0.570033,-3.043566 0.570032,-1.394543 1.587947,-2.402279 1.028094,-1.007736 2.453175,-1.567589 1.425081,-0.559853 3.145357,-0.559853 0.834691,0 1.567589,0.152687 0.743078,0.142508 1.384365,0.407166 0.641286,0.254479 1.180781,0.620928 0.539495,0.35627 0.95684,0.793974 l -1.160423,1.557409 q -0.111971,0.142509 -0.264658,0.264658 -0.152687,0.111971 -0.427524,0.111971 -0.183225,0 -0.346091,-0.08143 -0.162867,-0.08143 -0.346091,-0.193404 -0.183225,-0.12215 -0.407166,-0.254479 -0.213762,-0.142508 -0.519137,-0.254479 -0.295195,-0.122149 -0.702361,-0.203583 -0.396987,-0.08143 -0.936482,-0.08143 -0.936482,0 -1.710097,0.335912 -0.773615,0.325733 -1.333469,0.946661 -0.549674,0.610749 -0.865227,1.486156 -0.305375,0.875407 -0.305375,1.964576 0,1.1400646 0.305375,2.0256506 0.315553,0.8855861 0.844869,1.496335 0.539495,0.6005699 1.252035,0.9161235 0.712541,0.3155536 1.526873,0.3155536 0.468241,0 0.855048,-0.040717 0.386808,-0.050896 0.712541,-0.1628664 0.335912,-0.1119706 0.631107,-0.2850161 0.305375,-0.1832247 0.610749,-0.4478826 0.12215,-0.1017915 0.264658,-0.1628664 0.142508,-0.071254 0.295195,-0.071254 z" />
      <path
         id="path906"
         style="font-style:normal;font-variant:normal;font-weight:800;font-stretch:normal;font-family:Lato;-inkscape-font-specification:'Lato Ultra-Bold';fill:url(#linearGradient1113);fill-opacity:1;stroke-width:0.508956"
         d="m 51.639461,-11.924687 h 0.549674 q 0.763437,0 1.099349,-0.47842 l 3.338761,-4.845275 q 0.274837,-0.396987 0.620928,-0.539495 0.35627,-0.142508 0.865227,-0.142508 h 2.99267 l -4.397392,5.995519 q -0.234121,0.325733 -0.488599,0.539495 -0.254479,0.213762 -0.519137,0.35627 0.386808,0.142508 0.702361,0.396987 0.325733,0.2443 0.590391,0.6616448 l 4.478826,6.8811051 h -3.074103 q -0.295196,0 -0.508958,-0.040717 -0.203583,-0.040717 -0.35627,-0.1221498 -0.152687,-0.081433 -0.264658,-0.1934038 -0.111971,-0.1221498 -0.213762,-0.274837 L 53.69565,-8.8913002 Q 53.512425,-9.1763164 53.227409,-9.288287 52.952572,-9.4104368 52.474152,-9.4104368 h -0.834691 v 6.3110727 H 48.198909 V -17.930385 h 3.440552 z" />
      <path
         id="path908"
         style="font-style:normal;font-variant:normal;font-weight:800;font-stretch:normal;font-family:Lato;-inkscape-font-specification:'Lato Ultra-Bold';fill:url(#linearGradient1113);fill-opacity:1;stroke-width:0.508956"
         d="m 75.638123,-17.930385 v 2.728012 H 71.464672 V -3.0993641 H 68.024119 V -15.202373 h -4.173451 v -2.728012 z" />
      <path
         id="path910"
         style="font-style:normal;font-variant:normal;font-weight:800;font-stretch:normal;font-family:Lato;-inkscape-font-specification:'Lato Ultra-Bold';fill:url(#linearGradient1113);fill-opacity:1;stroke-width:0.508956"
         d="m 93.233464,-10.519964 q 0,1.6083055 -0.559853,2.9926699 -0.549674,1.3843643 -1.55741,2.4124584 -1.007736,1.017915 -2.432817,1.5981265 -1.414901,0.5802115 -3.145357,0.5802115 -1.730455,0 -3.155536,-0.5802115 -1.425081,-0.5802115 -2.442996,-1.5981265 -1.007736,-1.0280941 -1.567589,-2.4124584 -0.549674,-1.3843644 -0.549674,-2.9926699 0,-1.608306 0.549674,-2.99267 0.559853,-1.384364 1.567589,-2.402279 1.017915,-1.017915 2.442996,-1.598127 1.425081,-0.580211 3.155536,-0.580211 1.730456,0 3.145357,0.59039 1.425081,0.580212 2.432817,1.598127 1.007736,1.017915 1.55741,2.402279 0.559853,1.384364 0.559853,2.982491 z m -3.521986,0 q 0,-1.099348 -0.285016,-1.974755 -0.285016,-0.885586 -0.824511,-1.496335 -0.529316,-0.610749 -1.302931,-0.936482 -0.773615,-0.325733 -1.760993,-0.325733 -0.997557,0 -1.781351,0.325733 -0.773615,0.325733 -1.31311,0.936482 -0.529316,0.610749 -0.814332,1.496335 -0.285017,0.875407 -0.285017,1.974755 0,1.1095272 0.285017,1.9951132 0.285016,0.8754069 0.814332,1.4861558 0.539495,0.610749 1.31311,0.9364818 0.783794,0.3155536 1.781351,0.3155536 0.987378,0 1.760993,-0.3155536 0.773615,-0.3257328 1.302931,-0.9364818 0.539495,-0.6107489 0.824511,-1.4861558 0.285016,-0.885586 0.285016,-1.9951132 z" />
      <path
         id="path912"
         style="font-style:normal;font-variant:normal;font-weight:800;font-stretch:normal;font-family:Lato;-inkscape-font-specification:'Lato Ultra-Bold';fill:url(#linearGradient1113);fill-opacity:1;stroke-width:0.508956"
         d="M 97.015059,-3.0993641 V -17.930385 h 5.456021 q 1.53706,0 2.61605,0.285016 1.07898,0.285016 1.76099,0.804153 0.682,0.519137 0.98738,1.262214 0.31555,0.743078 0.31555,1.659202 0,0.498778 -0.14251,0.967019 -0.14251,0.458062 -0.44788,0.865228 -0.30538,0.407166 -0.7838,0.743078 -0.47842,0.325733 -1.15024,0.570032 1.4658,0.35627 2.16816,1.1604232 0.70236,0.7939736 0.70236,2.0460091 0,0.9466609 -0.36645,1.7609928 -0.36645,0.814332 -1.07899,1.425081 -0.70236,0.6005698 -1.74063,0.9466609 -1.03828,0.3359119 -2.37175,0.3359119 z m 3.440551,-6.2907144 v 3.6950313 h 2.42264 q 0.682,0 1.10953,-0.1730456 0.4377,-0.1730455 0.682,-0.4478825 0.2443,-0.2748371 0.33591,-0.6209282 0.0916,-0.3460911 0.0916,-0.7023613 0,-0.407166 -0.11197,-0.7328988 -0.10179,-0.3257328 -0.36645,-0.549674 -0.25447,-0.2239413 -0.682,-0.3460911 -0.42752,-0.1221498 -1.07899,-0.1221498 z m 0,-2.3004875 h 1.79153 q 0.57003,0 1.0281,-0.08143 0.45806,-0.08143 0.77361,-0.285016 0.32573,-0.203583 0.4886,-0.559853 0.17305,-0.35627 0.17305,-0.895765 0,-0.529316 -0.13233,-0.875407 -0.13233,-0.35627 -0.40717,-0.570032 -0.27484,-0.213763 -0.70236,-0.305375 -0.41734,-0.09161 -0.99756,-0.09161 h -2.01547 z" />
      <path
         id="path914"
         style="font-style:normal;font-variant:normal;font-weight:800;font-stretch:normal;font-family:Lato;-inkscape-font-specification:'Lato Ultra-Bold';fill:url(#linearGradient1113);fill-opacity:1;stroke-width:0.508956"
         d="m 122.03991,-17.930385 v 2.646579 h -6.08713 v 3.460911 h 4.66205 v 2.5447871 h -4.66205 v 3.5321649 h 6.08713 v 2.6465789 h -9.54804 V -17.930385 Z" />
      <path
         id="path916"
         style="font-style:normal;font-variant:normal;font-weight:800;font-stretch:normal;font-family:Lato;-inkscape-font-specification:'Lato Ultra-Bold';fill:url(#linearGradient1113);fill-opacity:1;stroke-width:0.508956"
         d="m 129.54039,-8.5859257 v 5.4865616 h -3.44055 V -17.930385 h 4.82491 q 1.60831,0 2.7382,0.335912 1.14006,0.325733 1.8526,0.916123 0.72272,0.590391 1.04845,1.394544 0.32574,0.804153 0.32574,1.750814 0,0.722719 -0.19341,1.364006 -0.1934,0.641286 -0.58021,1.19096 -0.37663,0.539495 -0.93648,0.967019 -0.54968,0.4275246 -1.27239,0.7023617 0.34609,0.1730455 0.64128,0.4275243 0.30538,0.2544787 0.52932,0.6209281 l 3.15553,5.1608288 h -3.11482 q -0.86522,0 -1.24185,-0.6514655 l -2.46336,-4.3057803 q -0.16286,-0.2850162 -0.3868,-0.407166 -0.21377,-0.1221498 -0.61075,-0.1221498 z m 0,-2.3717423 h 1.38436 q 0.70237,0 1.19096,-0.173045 0.49878,-0.183225 0.81434,-0.498778 0.31555,-0.315554 0.45806,-0.732899 0.14251,-0.427525 0.14251,-0.916124 0,-0.977198 -0.64129,-1.526872 -0.63111,-0.549674 -1.96458,-0.549674 h -1.38436 z" />
      <path
         id="path918"
         style="font-style:normal;font-variant:normal;font-weight:800;font-stretch:normal;font-family:Lato;-inkscape-font-specification:'Lato Ultra-Bold';fill:url(#linearGradient1113);fill-opacity:1;stroke-width:0.508956"
         d="m 151.28373,-17.930385 v 2.646579 h -6.08713 v 3.756106 h 5.06921 v 2.6567581 h -5.06921 v 5.7715778 h -3.46091 V -17.930385 Z" />
      <path
         id="path920"
         style="font-style:normal;font-variant:normal;font-weight:800;font-stretch:normal;font-family:Lato;-inkscape-font-specification:'Lato Ultra-Bold';fill:url(#linearGradient1113);fill-opacity:1;stroke-width:0.508956"
         d="m 164.73266,-17.930385 v 2.646579 h -6.08713 v 3.460911 h 4.66205 v 2.5447871 h -4.66205 v 3.5321649 h 6.08713 v 2.6465789 h -9.54804 V -17.930385 Z" />
      <path
         id="path922"
         style="font-style:normal;font-variant:normal;font-weight:800;font-stretch:normal;font-family:Lato;-inkscape-font-specification:'Lato Ultra-Bold';fill:url(#linearGradient1113);fill-opacity:1;stroke-width:0.508956"
         d="m 177.05806,-14.917357 q -0.15269,0.2443 -0.32574,0.36645 -0.16286,0.122149 -0.42752,0.122149 -0.23412,0 -0.50896,-0.142508 -0.26466,-0.152687 -0.61075,-0.335912 -0.33591,-0.183224 -0.77361,-0.325732 -0.43771,-0.152688 -0.99756,-0.152688 -0.96702,0 -1.44544,0.417345 -0.46824,0.407166 -0.46824,1.109528 0,0.447882 0.28502,0.743078 0.28501,0.295195 0.74307,0.508957 0.46825,0.213762 1.05864,0.396987 0.60057,0.173046 1.22149,0.396987 0.62093,0.213762 1.21132,0.508957 0.60057,0.295196 1.05863,0.753257 0.46824,0.458062 0.75326,1.1197069 0.28502,0.6514655 0.28502,1.5777682 0,1.0280941 -0.35627,1.9238592 -0.35627,0.8957652 -1.03828,1.5675891 -0.67182,0.6616447 -1.66938,1.0484524 -0.98737,0.3766285 -2.24959,0.3766285 -0.69218,0 -1.4149,-0.1425081 -0.71254,-0.1425081 -1.38436,-0.3969868 -0.67183,-0.2646579 -1.26222,-0.6209281 -0.59039,-0.3562703 -1.02809,-0.7939737 L 168.73151,-6.4992 q 0.11197,-0.1832247 0.31556,-0.2951954 0.20358,-0.1119706 0.4377,-0.1119706 0.30537,0 0.61075,0.1934038 0.31555,0.1934039 0.70236,0.4275243 0.39699,0.2341204 0.90594,0.4275243 0.50896,0.1934038 1.20114,0.1934038 0.93648,0 1.45562,-0.407166 0.51914,-0.4173451 0.51914,-1.3131103 0,-0.5191366 -0.28502,-0.8448694 -0.28501,-0.3257328 -0.75326,-0.5394949 -0.45806,-0.2137621 -1.04845,-0.3766285 -0.59039,-0.1628664 -1.21132,-0.3562703 -0.62092,-0.203583 -1.21132,-0.4885992 -0.59039,-0.2951956 -1.05863,-0.7634366 -0.45806,-0.47842 -0.74308,-1.180781 -0.28501,-0.71254 -0.28501,-1.750814 0,-0.83469 0.33591,-1.628664 0.33591,-0.793973 0.98738,-1.414901 0.65146,-0.620929 1.59812,-0.987378 0.94667,-0.376628 2.16816,-0.376628 0.68201,0 1.32329,0.11197 0.65147,0.101792 1.23168,0.315554 0.58021,0.203583 1.07899,0.498778 0.50896,0.285016 0.90594,0.651466 z" />
      <path
         id="path924"
         style="font-style:normal;font-variant:normal;font-weight:800;font-stretch:normal;font-family:Lato;-inkscape-font-specification:'Lato Ultra-Bold';fill:url(#linearGradient1113);fill-opacity:1;stroke-width:0.508956"
         d="m 192.73272,-17.930385 v 2.728012 h -4.17345 v 12.1030089 h -3.44055 V -15.202373 h -4.17346 v -2.728012 z" />
    </g>
    <g
       style="font-style:normal;font-weight:normal;font-size:14.1111px;line-height:1.25;font-family:sans-serif;letter-spacing:1.05833px;fill:#000000;fill-opacity:1;stroke:none;stroke-width:0.508956"
       id="text1097"
       aria-label="OPEN SOURCE:">
      <path
         id="path859"
         style="font-style:normal;font-variant:normal;font-weight:600;font-stretch:normal;font-size:14.1111px;font-family:Lato;-inkscape-font-specification:'Lato Semi-Bold';fill:#ffffff;stroke-width:0.508956"
         d="m 9.3195262,-48.084561 q 0,1.121832 -0.3739442,2.081387 -0.3739441,0.952499 -1.0512769,1.650999 -0.6773328,0.698499 -1.6298321,1.09361 -0.9524993,0.388055 -2.1096095,0.388055 -1.1571102,0 -2.116665,-0.388055 -0.9524993,-0.395111 -1.63688762,-1.09361 -0.67733281,-0.6985 -1.05127697,-1.650999 -0.37394411,-0.959555 -0.37394411,-2.081387 0,-1.121833 0.37394411,-2.074332 0.37394416,-0.959555 1.05127697,-1.658054 0.68438832,-0.6985 1.63688762,-1.086555 0.9595548,-0.395111 2.116665,-0.395111 1.1571102,0 2.1096095,0.395111 0.9524993,0.395111 1.6298321,1.09361 0.6773328,0.691444 1.0512769,1.650999 0.3739442,0.952499 0.3739442,2.074332 z m -1.9473318,0 q 0,-0.839611 -0.2257776,-1.502832 -0.2187221,-0.670278 -0.6349995,-1.135944 -0.4162775,-0.465666 -1.0159993,-0.71261 -0.5926662,-0.246945 -1.3405545,-0.246945 -0.7478883,0 -1.34761,0.246945 -0.5997218,0.246944 -1.0230548,0.71261 -0.4162775,0.465666 -0.6420551,1.135944 -0.22577757,0.663221 -0.22577757,1.502832 0,0.83961 0.22577757,1.509888 0.2257776,0.663221 0.6420551,1.128888 0.423333,0.45861 1.0230548,0.705555 0.5997217,0.246944 1.34761,0.246944 0.7478883,0 1.3405545,-0.246944 0.5997218,-0.246945 1.0159993,-0.705555 0.4162774,-0.465667 0.6349995,-1.128888 0.2257776,-0.670278 0.2257776,-1.509888 z" />
      <path
         id="path861"
         style="font-style:normal;font-variant:normal;font-weight:600;font-stretch:normal;font-size:14.1111px;font-family:Lato;-inkscape-font-specification:'Lato Semi-Bold';fill:#ffffff;stroke-width:0.508956"
         d="m 13.825594,-46.574673 v 3.591275 h -1.897943 v -10.202326 h 3.323164 q 1.023055,0 1.770944,0.239889 0.747888,0.239889 1.234721,0.670277 0.486833,0.430389 0.719666,1.03011 0.232833,0.599722 0.232833,1.312333 0,0.740832 -0.246944,1.361721 -0.246944,0.613833 -0.740833,1.058332 -0.493888,0.4445 -1.234721,0.691444 -0.740833,0.246945 -1.735666,0.246945 z m 0,-1.481666 h 1.425221 q 0.522111,0 0.910166,-0.127 0.388056,-0.134055 0.642056,-0.373944 0.253999,-0.246944 0.380999,-0.592666 0.127,-0.352778 0.127,-0.783166 0,-0.409222 -0.127,-0.740833 -0.127,-0.331611 -0.380999,-0.564444 -0.254,-0.232833 -0.642056,-0.352778 -0.388055,-0.126999 -0.910166,-0.126999 h -1.425221 z" />
      <path
         id="path863"
         style="font-style:normal;font-variant:normal;font-weight:600;font-stretch:normal;font-size:14.1111px;font-family:Lato;-inkscape-font-specification:'Lato Semi-Bold';fill:#ffffff;stroke-width:0.508956"
         d="m 28.176583,-53.185724 v 1.509888 h -4.522608 v 2.829275 h 3.563053 v 1.460499 h -3.563053 v 2.88572 h 4.522608 v 1.516944 h -6.434662 v -10.202326 z" />
      <path
         id="path865"
         style="font-style:normal;font-variant:normal;font-weight:600;font-stretch:normal;font-size:14.1111px;font-family:Lato;-inkscape-font-specification:'Lato Semi-Bold';fill:#ffffff;stroke-width:0.508956"
         d="m 31.87038,-53.185724 q 0.127,0 0.211667,0.01411 0.08467,0.0071 0.148166,0.04233 0.07056,0.02822 0.134056,0.09172 0.0635,0.05644 0.141111,0.155222 l 5.355162,6.822717 q -0.02822,-0.246945 -0.04233,-0.479778 -0.0071,-0.239888 -0.0071,-0.444499 v -6.201829 h 1.672165 v 10.202326 h -0.980722 q -0.225777,0 -0.373944,-0.07056 -0.148166,-0.07056 -0.289277,-0.254 l -5.333996,-6.794494 q 0.02117,0.225777 0.02822,0.451555 0.01411,0.218722 0.01411,0.402166 v 6.265329 h -1.672165 v -10.202326 h 0.994832 z" />
      <path
         id="path867"
         style="font-style:normal;font-variant:normal;font-weight:600;font-stretch:normal;font-size:14.1111px;font-family:Lato;-inkscape-font-specification:'Lato Semi-Bold';fill:#ffffff;stroke-width:0.508956"
         d="m 51.854778,-51.330114 q -0.07761,0.155222 -0.183444,0.218722 -0.09878,0.0635 -0.239889,0.0635 -0.141111,0 -0.3175,-0.105833 -0.176388,-0.112889 -0.416277,-0.246945 -0.239889,-0.134055 -0.564444,-0.239888 -0.3175,-0.112889 -0.754944,-0.112889 -0.395111,0 -0.691444,0.09878 -0.289277,0.09172 -0.493888,0.261056 -0.197556,0.169333 -0.296333,0.409222 -0.09878,0.232833 -0.09878,0.515055 0,0.359833 0.197555,0.599722 0.204611,0.239888 0.536222,0.409222 0.331611,0.169333 0.754944,0.303388 0.423333,0.134056 0.860777,0.289278 0.4445,0.148166 0.867833,0.352777 0.423333,0.197556 0.754944,0.508 0.33161,0.303389 0.529166,0.747888 0.204611,0.4445 0.204611,1.079499 0,0.691444 -0.239889,1.298222 -0.232833,0.599721 -0.691444,1.051277 -0.451555,0.444499 -1.107721,0.705555 -0.656166,0.253999 -1.502832,0.253999 -0.486833,0 -0.959555,-0.09878 -0.472722,-0.09172 -0.910166,-0.268111 -0.430389,-0.176389 -0.811388,-0.423333 -0.373945,-0.246945 -0.670278,-0.550333 l 0.550333,-0.910166 q 0.07761,-0.09878 0.183445,-0.162278 0.112888,-0.07055 0.246944,-0.07055 0.176389,0 0.380999,0.148166 0.204611,0.141111 0.479778,0.3175 0.282222,0.176389 0.656166,0.324555 0.381,0.141111 0.910166,0.141111 0.811388,0 1.255888,-0.380999 0.4445,-0.388056 0.4445,-1.107722 0,-0.402166 -0.204611,-0.656166 -0.197556,-0.254 -0.529167,-0.423333 -0.33161,-0.176389 -0.754943,-0.296333 -0.423334,-0.119944 -0.860778,-0.261055 -0.437444,-0.141111 -0.860777,-0.338667 -0.423333,-0.197555 -0.754944,-0.515055 -0.33161,-0.3175 -0.536221,-0.790222 -0.197556,-0.479777 -0.197556,-1.178276 0,-0.557389 0.218722,-1.086555 0.225778,-0.529166 0.649111,-0.938388 0.430388,-0.409222 1.051277,-0.656166 0.620888,-0.246945 1.418165,-0.246945 0.903111,0 1.66511,0.282222 0.762,0.282222 1.298221,0.790222 z" />
      <path
         id="path869"
         style="font-style:normal;font-variant:normal;font-weight:600;font-stretch:normal;font-size:14.1111px;font-family:Lato;-inkscape-font-specification:'Lato Semi-Bold';fill:#ffffff;stroke-width:0.508956"
         d="m 64.81031,-48.084561 q 0,1.121832 -0.373944,2.081387 -0.373944,0.952499 -1.051277,1.650999 -0.677333,0.698499 -1.629832,1.09361 -0.9525,0.388055 -2.10961,0.388055 -1.15711,0 -2.116665,-0.388055 -0.952499,-0.395111 -1.636887,-1.09361 -0.677333,-0.6985 -1.051277,-1.650999 -0.373945,-0.959555 -0.373945,-2.081387 0,-1.121833 0.373945,-2.074332 0.373944,-0.959555 1.051277,-1.658054 0.684388,-0.6985 1.636887,-1.086555 0.959555,-0.395111 2.116665,-0.395111 1.15711,0 2.10961,0.395111 0.952499,0.395111 1.629832,1.09361 0.677333,0.691444 1.051277,1.650999 0.373944,0.952499 0.373944,2.074332 z m -1.947332,0 q 0,-0.839611 -0.225778,-1.502832 -0.218722,-0.670278 -0.634999,-1.135944 -0.416278,-0.465666 -1.015999,-0.71261 -0.592666,-0.246945 -1.340555,-0.246945 -0.747888,0 -1.34761,0.246945 -0.599722,0.246944 -1.023055,0.71261 -0.416277,0.465666 -0.642055,1.135944 -0.225777,0.663221 -0.225777,1.502832 0,0.83961 0.225777,1.509888 0.225778,0.663221 0.642055,1.128888 0.423333,0.45861 1.023055,0.705555 0.599722,0.246944 1.34761,0.246944 0.747889,0 1.340555,-0.246944 0.599721,-0.246945 1.015999,-0.705555 0.416277,-0.465667 0.634999,-1.128888 0.225778,-0.670278 0.225778,-1.509888 z" />
      <path
         id="path871"
         style="font-style:normal;font-variant:normal;font-weight:600;font-stretch:normal;font-size:14.1111px;font-family:Lato;-inkscape-font-specification:'Lato Semi-Bold';fill:#ffffff;stroke-width:0.508956"
         d="m 71.461265,-44.514453 q 0.550333,0 0.980722,-0.183444 0.437444,-0.183444 0.733777,-0.515055 0.303389,-0.331611 0.458611,-0.804333 0.162277,-0.472722 0.162277,-1.058332 v -6.110107 h 1.897943 v 6.110107 q 0,0.910165 -0.296333,1.686276 -0.289277,0.769055 -0.83961,1.333499 -0.550333,0.557388 -1.333499,0.874888 -0.783166,0.310444 -1.763888,0.310444 -0.980721,0 -1.763887,-0.310444 -0.783166,-0.3175 -1.333499,-0.874888 -0.543278,-0.564444 -0.839611,-1.333499 -0.289277,-0.776111 -0.289277,-1.686276 v -6.110107 h 1.897943 v 6.103051 q 0,0.585611 0.155222,1.058332 0.162278,0.472722 0.458611,0.811389 0.296333,0.331611 0.726721,0.515055 0.437444,0.183444 0.987777,0.183444 z" />
      <path
         id="path873"
         style="font-style:normal;font-variant:normal;font-weight:600;font-stretch:normal;font-size:14.1111px;font-family:Lato;-inkscape-font-specification:'Lato Semi-Bold';fill:#ffffff;stroke-width:0.508956"
         d="m 80.654864,-46.969784 v 3.986386 h -1.897943 v -10.202326 h 3.111497 q 1.044222,0 1.785055,0.218722 0.747888,0.211667 1.22061,0.599722 0.479777,0.388055 0.698499,0.931333 0.225778,0.536221 0.225778,1.185332 0,0.515055 -0.155222,0.973666 -0.148167,0.458611 -0.437444,0.832555 -0.282222,0.373944 -0.705555,0.656166 -0.416278,0.282222 -0.9525,0.451555 0.359833,0.204611 0.620889,0.585611 l 2.554109,3.767664 h -1.707443 q -0.246945,0 -0.423333,-0.09878 -0.169333,-0.09878 -0.289278,-0.282222 l -2.144887,-3.26672 q -0.119944,-0.183444 -0.268111,-0.261055 -0.141111,-0.07761 -0.423333,-0.07761 z m 0,-1.361721 h 1.185332 q 0.536222,0 0.931333,-0.134056 0.402166,-0.134055 0.656166,-0.366888 0.261055,-0.239889 0.388055,-0.564444 0.127,-0.324556 0.127,-0.712611 0,-0.776111 -0.515055,-1.192388 -0.508,-0.416277 -1.559277,-0.416277 h -1.213554 z" />
      <path
         id="path875"
         style="font-style:normal;font-variant:normal;font-weight:600;font-stretch:normal;font-size:14.1111px;font-family:Lato;-inkscape-font-specification:'Lato Semi-Bold';fill:#ffffff;stroke-width:0.508956"
         d="m 95.667087,-45.389341 q 0.155222,0 0.268111,0.119944 l 0.747888,0.811389 q -0.620888,0.769055 -1.531054,1.178276 -0.903111,0.409222 -2.17311,0.409222 -1.135943,0 -2.046109,-0.388055 -0.903111,-0.388055 -1.545166,-1.079499 -0.642055,-0.691444 -0.987777,-1.650999 -0.338666,-0.959555 -0.338666,-2.095498 0,-1.150055 0.381,-2.102554 0.380999,-0.959555 1.072443,-1.650999 0.691444,-0.691444 1.650999,-1.072443 0.96661,-0.388056 2.130776,-0.388056 1.135944,0 1.98261,0.366889 0.853721,0.359833 1.460498,0.959555 l -0.634999,0.881943 q -0.05644,0.08467 -0.148167,0.148167 -0.08467,0.0635 -0.239888,0.0635 -0.162278,0 -0.331611,-0.127 -0.169333,-0.127 -0.430389,-0.275166 -0.261055,-0.148167 -0.663221,-0.275167 -0.395111,-0.127 -1.008944,-0.127 -0.719666,0 -1.326443,0.254 -0.599722,0.246944 -1.037166,0.712611 -0.430389,0.465666 -0.677333,1.135943 -0.239889,0.663222 -0.239889,1.495777 0,0.860777 0.239889,1.531054 0.246944,0.670277 0.663222,1.128888 0.416277,0.458611 0.980721,0.705555 0.564444,0.239889 1.213555,0.239889 0.388055,0 0.698499,-0.04233 0.3175,-0.04233 0.578555,-0.134056 0.268111,-0.09172 0.500944,-0.232833 0.239889,-0.148167 0.472722,-0.359833 0.07056,-0.0635 0.148167,-0.09878 0.07761,-0.04233 0.169333,-0.04233 z" />
      <path
         id="path877"
         style="font-style:normal;font-variant:normal;font-weight:600;font-stretch:normal;font-size:14.1111px;font-family:Lato;-inkscape-font-specification:'Lato Semi-Bold';fill:#ffffff;stroke-width:0.508956"
         d="m 105.6002,-53.185724 v 1.509888 h -4.52261 v 2.829275 h 3.56305 v 1.460499 h -3.56305 v 2.88572 h 4.52261 v 1.516944 h -6.434665 v -10.202326 z" />
      <path
         id="path879"
         style="font-style:normal;font-variant:normal;font-weight:900;font-stretch:normal;font-family:Lato;-inkscape-font-specification:'Lato Heavy';fill:#ffffff"
         d="m 107.97461,-44.09112 q 0,-0.254 0.0917,-0.472722 0.0988,-0.218722 0.26106,-0.380999 0.16933,-0.162278 0.39511,-0.254 0.22577,-0.09878 0.49389,-0.09878 0.26105,0 0.48683,0.09878 0.22578,0.09172 0.39511,0.254 0.16933,0.162277 0.26105,0.380999 0.0988,0.218722 0.0988,0.472722 0,0.254 -0.0988,0.479778 -0.0917,0.218722 -0.26105,0.380999 -0.16933,0.162278 -0.39511,0.254 -0.22578,0.09172 -0.48683,0.09172 -0.26812,0 -0.49389,-0.09172 -0.22578,-0.09172 -0.39511,-0.254 -0.16228,-0.162277 -0.26106,-0.380999 -0.0917,-0.225778 -0.0917,-0.479778 z m 0,-4.818941 q 0,-0.253999 0.0917,-0.472721 0.0988,-0.218722 0.26106,-0.381 0.16933,-0.162278 0.39511,-0.254 0.22577,-0.09878 0.49389,-0.09878 0.26105,0 0.48683,0.09878 0.22578,0.09172 0.39511,0.254 0.16933,0.162278 0.26105,0.381 0.0988,0.218722 0.0988,0.472721 0,0.254 -0.0988,0.479778 -0.0917,0.218722 -0.26105,0.381 -0.16933,0.162277 -0.39511,0.253999 -0.22578,0.09172 -0.48683,0.09172 -0.26812,0 -0.49389,-0.09172 -0.22578,-0.09172 -0.39511,-0.253999 -0.16228,-0.162278 -0.26106,-0.381 -0.0917,-0.225778 -0.0917,-0.479778 z" />
    </g>
  </g>
</svg>
